HIERARCHY
ROOT joint_Root
{
	OFFSET 0.0 0.0 0.0
	CHANNELS 6 Xposition Yposition Zposition Zrotation Xrotation Yrotation 
	JOINT Hips
	{
		OFFSET 4.5925 91.4895 -427.239
		CHANNELS 6 Xposition Yposition Zposition Zrotation Xrotation Yrotation 
		JOINT Spine
		{
			OFFSET 15.7357 0.0 0.0
			CHANNELS 6 Xposition Yposition Zposition Zrotation Xrotation Yrotation 
			JOINT Chest
			{
				OFFSET 8.98455 -0.406207 0.0
				CHANNELS 6 Xposition Yposition Zposition Zrotation Xrotation Yrotation 
				JOINT Neck
				{
					OFFSET 16.3773 0.0 0.0
					CHANNELS 6 Xposition Yposition Zposition Zrotation Xrotation Yrotation 
					JOINT Head
					{
						OFFSET 6.45672 0.0 0.0
						CHANNELS 6 Xposition Yposition Zposition Zrotation Xrotation Yrotation 
						End Site
						{
							OFFSET 0.0 0.0 0.0
						}
					}
				}
				JOINT Shoulder_L
				{
					OFFSET 12.9942 -0.242716 4.98039
					CHANNELS 6 Xposition Yposition Zposition Zrotation Xrotation Yrotation 
					JOINT UpperArm_L
					{
						OFFSET 5.34809 0.0 0.0
						CHANNELS 6 Xposition Yposition Zposition Zrotation Xrotation Yrotation 
						JOINT LowerArm_L
						{
							OFFSET 24.3286 1.87007e-05 0.0
							CHANNELS 6 Xposition Yposition Zposition Zrotation Xrotation Yrotation 
							JOINT Hand_L
							{
								OFFSET 22.2916 0.0 0.0
								CHANNELS 6 Xposition Yposition Zposition Zrotation Xrotation Yrotation 
								End Site
								{
									OFFSET 0.0 0.0 0.0
								}
							}
						}
					}
				}
				JOINT Shoulder_R
				{
					OFFSET 12.9945 -0.242716 -4.98039
					CHANNELS 6 Xposition Yposition Zposition Zrotation Xrotation Yrotation 
					JOINT UpperArm_R
					{
						OFFSET -5.34813 0.0 0.0
						CHANNELS 6 Xposition Yposition Zposition Zrotation Xrotation Yrotation 
						JOINT LowerArm_R
						{
							OFFSET -24.3289 0.000322201 0.0
							CHANNELS 6 Xposition Yposition Zposition Zrotation Xrotation Yrotation 
							JOINT Hand_R
							{
								OFFSET -22.2915 -0.000108084 0.0
								CHANNELS 6 Xposition Yposition Zposition Zrotation Xrotation Yrotation 
								End Site
								{
									OFFSET 0.0 0.0 0.0
								}
							}
						}
					}
				}
			}
		}
		JOINT UpperLeg_L
		{
			OFFSET -2.19248 -6.46944 0.0
			CHANNELS 6 Xposition Yposition Zposition Zrotation Xrotation Yrotation 
			JOINT LowerLeg_L
			{
				OFFSET 39.0811 0.0 -1.23785e-05
				CHANNELS 6 Xposition Yposition Zposition Zrotation Xrotation Yrotation 
				JOINT Foot_L
				{
					OFFSET 40.9854 0.0 -1.26872e-05
					CHANNELS 6 Xposition Yposition Zposition Zrotation Xrotation Yrotation 
					JOINT Toes_L
					{
						OFFSET 11.7543 0.0 0.0
						CHANNELS 6 Xposition Yposition Zposition Zrotation Xrotation Yrotation 
						End Site
						{
							OFFSET 0.0 0.0 0.0
						}
					}
				}
			}
		}
		JOINT UpperLeg_R
		{
			OFFSET -2.19251 6.46944 0.0
			CHANNELS 6 Xposition Yposition Zposition Zrotation Xrotation Yrotation 
			JOINT LowerLeg_R
			{
				OFFSET -39.0811 -0.00228153 -0.0401928
				CHANNELS 6 Xposition Yposition Zposition Zrotation Xrotation Yrotation 
				JOINT Foot_R
				{
					OFFSET -40.9854 0.0 0.0
					CHANNELS 6 Xposition Yposition Zposition Zrotation Xrotation Yrotation 
					JOINT Toes_R
					{
						OFFSET -11.7543 0.0 0.0
						CHANNELS 6 Xposition Yposition Zposition Zrotation Xrotation Yrotation 
						End Site
						{
							OFFSET 0.0 0.0 0.0
						}
					}
				}
			}
		}
	}
}
MOTION
Frames:	4
Frame Time:	0.0333333
0.000000 0.000000 0.000000 0.000000 0.000000 -0.000000 89.680800 89.038800 175.332000 -74.936500 62.902200 172.727000 15.735700 0.000005 -0.000001 80.990300 83.792100 -80.075800 8.984550 -0.406207 -0.000000 4.515060 -1.966890 1.904590 16.377300 -0.000001 -0.000001 -3.575630 5.177550 1.498490 6.456720 -0.000001 -0.000000 -10.614400 12.585600 -0.559961 12.994200 -0.242716 4.980390 -90.542800 2.153360 -75.849600 5.348090 -0.000007 -0.000001 -73.347000 30.496500 -8.424100 24.328600 0.000019 0.000005 4.076490 31.149800 -7.849840 22.291600 -0.000001 0.000005 -0.606930 4.976520 7.815940 12.994500 -0.242716 -4.980390 88.303900 8.579150 -78.773300 -5.348130 -0.000001 -0.000004 -58.582800 17.894300 -20.929200 -24.328900 0.000322 -0.000009 -1.505210 -3.082670 -26.011100 -22.291500 -0.000108 -0.000004 19.116700 5.408940 -3.229840 -2.192480 -6.469440 -0.000000 -178.768000 -20.809800 -24.000700 39.081100 -0.000007 -0.000012 0.212868 -0.096677 65.573200 40.985400 -0.000006 -0.000013 7.019880 2.142000 -63.743400 11.754300 -0.000000 0.000003 -0.008167 -0.089398 -20.217300 -2.192510 6.469440 -0.000001 171.809000 13.110300 177.735000 -39.081100 -0.002282 -0.040193 -0.025579 0.041794 34.636200 -40.985400 0.000008 0.000006 0.129236 16.870400 -65.605800 -11.754300 -0.000006 -0.000006 -1.578020 -1.720130 -23.042500
0.000000 0.000000 0.000000 0.000000 0.000000 -0.000000 91.530400 89.374200 173.187000 -72.914100 64.183000 170.061000 15.735700 0.000005 -0.000001 81.838800 83.948300 -81.059800 8.984550 -0.406207 -0.000000 4.228740 -1.739510 1.620590 16.377300 -0.000001 -0.000001 -4.110790 5.320270 1.568370 6.456720 -0.000001 -0.000000 -11.125000 12.757200 -1.045320 12.994200 -0.242716 4.980390 -90.522500 2.062360 -75.781100 5.348090 -0.000007 -0.000001 -73.540200 29.655800 -3.079280 24.328600 0.000019 0.000005 2.397240 32.796500 -4.419170 22.291600 -0.000001 0.000005 0.247435 4.944620 8.472810 12.994500 -0.242716 -4.980390 88.598400 7.441830 -79.302600 -5.348130 -0.000001 -0.000004 -57.154500 17.280300 -26.238600 -24.328900 0.000322 -0.000009 -1.954190 -3.272650 -30.858300 -22.291500 -0.000108 -0.000004 17.589300 5.403030 -3.035410 -2.192480 -6.469440 -0.000000 -179.550000 -25.179800 -26.969900 39.081100 -0.000007 -0.000012 0.164987 -0.110794 56.116300 40.985400 -0.000006 -0.000013 6.217540 0.821501 -65.122500 11.754300 -0.000000 0.000003 -0.008095 -0.088818 -20.193600 -2.192510 6.469440 -0.000001 171.365000 13.167700 178.904000 -39.081100 -0.002282 -0.040193 -0.008016 0.017349 33.104900 -40.985400 0.000008 0.000006 0.308632 18.203300 -63.441600 -11.754300 -0.000006 -0.000006 -0.023563 -0.186278 -24.191100
0.000000 0.000000 0.000000 0.000000 0.000000 -0.000000 93.410300 89.134200 170.906000 -71.202200 64.812500 167.797000 15.735700 0.000005 -0.000001 82.297200 84.063400 -81.658500 8.984550 -0.406207 -0.000000 4.010640 -1.610010 1.332400 16.377300 -0.000001 -0.000001 -4.683830 5.309750 1.654800 6.456720 -0.000001 -0.000000 -11.304500 12.676200 -1.458760 12.994200 -0.242716 4.980390 -90.485900 1.944900 -75.971400 5.348090 -0.000007 -0.000001 -73.579300 29.997400 1.772600 24.328600 0.000019 0.000005 1.899510 32.070300 -3.574010 22.291600 -0.000001 0.000005 1.129350 4.939310 8.584320 12.994500 -0.242716 -4.980390 88.798600 6.677560 -79.777000 -5.348130 -0.000001 -0.000004 -55.247500 15.860600 -29.904200 -24.328900 0.000322 -0.000009 -1.546720 -2.027300 -37.362700 -22.291500 -0.000108 -0.000004 17.582700 5.401560 -2.988130 -2.192480 -6.469440 -0.000000 179.228000 -28.436200 -29.342000 39.081100 -0.000007 -0.000012 0.105662 -0.104317 45.366100 40.985400 -0.000006 -0.000013 6.530750 -4.031210 -64.403100 11.754300 -0.000000 0.000003 -0.007839 -0.086726 -20.108200 -2.192510 6.469440 -0.000001 170.782000 12.993700 179.709000 -39.081100 -0.002282 -0.040193 -0.000802 0.006299 33.044200 -40.985400 0.000008 0.000006 0.246060 18.616300 -62.650500 -11.754300 -0.000006 -0.000006 -0.033628 -0.233634 -26.153900
0.000000 0.000000 0.000000 0.000000 0.000000 -0.000000 95.533600 88.465400 168.393000 -69.392200 64.358100 166.136000 15.735700 0.000005 -0.000001 82.669800 83.946500 -82.047900 8.984550 -0.406207 -0.000000 4.251990 -1.561310 1.300380 16.377300 -0.000001 -0.000001 -5.112980 5.051050 1.812980 6.456720 -0.000001 -0.000000 -11.288400 12.349600 -1.834550 12.994200 -0.242716 4.980390 -90.387000 1.585660 -76.283700 5.348090 -0.000007 -0.000001 -73.727400 32.773000 4.840710 24.328600 0.000019 0.000005 1.903720 31.962400 -3.592710 22.291600 -0.000001 0.000005 0.910911 4.970910 7.930550 12.994500 -0.242716 -4.980390 88.914600 6.221450 -80.083400 -5.348130 -0.000001 -0.000004 -52.954300 13.558000 -31.640100 -24.328900 0.000322 -0.000009 -0.811548 -0.804700 -45.263800 -22.291500 -0.000108 -0.000004 19.565800 5.408650 -3.216220 -2.192480 -6.469440 -0.000000 177.961000 -30.294500 -30.597200 39.081100 -0.000007 -0.000012 0.156380 -0.218910 35.540400 40.985400 -0.000006 -0.000013 11.218500 -11.684600 -63.182300 11.754300 -0.000000 0.000003 -0.007349 -0.082638 -19.941300 -2.192510 6.469440 -0.000001 170.377000 12.682700 -178.879000 -39.081100 -0.002282 -0.040193 0.002715 0.000855 34.041800 -40.985400 0.000008 0.000006 0.255796 17.997800 -62.611500 -11.754300 -0.000006 -0.000006 -0.046616 -0.285481 -28.320800
